<svg xmlns="http://www.w3.org/2000/svg" xmlns:xlink="http://www.w3.org/1999/xlink" width="1366" height="661" viewBox="0 0 1366 661">
  <defs>
    <filter id="Path_1" x="884.382" y="-128.333" width="537.618" height="267.333" filterUnits="userSpaceOnUse">
      <feOffset dx="10" dy="10" input="SourceAlpha"/>
      <feGaussianBlur stdDeviation="3" result="blur"/>
      <feFlood flood-opacity="0.161"/>
      <feComposite operator="in" in2="blur"/>
      <feComposite in="SourceGraphic"/>
    </filter>
    <clipPath id="clip-Web_1366_1">
      <rect width="1366" height="661"/>
    </clipPath>
  </defs>
  <g id="Web_1366_1" data-name="Web 1366 – 1" clip-path="url(#clip-Web_1366_1)">
    <rect width="1366" height="661" fill="#6f459e"/>
    <g transform="matrix(1, 0, 0, 1, 0, 0)" filter="url(#Path_1)">
      <g id="Path_1-2" data-name="Path 1" transform="translate(721.81 -128.33)" fill="#fff" opacity="0.08">
        <path d="M 392.693359375 247.8329162597656 C 370.8210144042969 247.8329162597656 348.6582946777344 246.0665130615234 326.8207092285156 242.5827789306641 C 308.022216796875 239.5838470458984 289.5303649902344 235.3331756591797 271.8587646484375 229.9487152099609 C 257.14208984375 225.4645690917969 242.9905700683594 220.1604461669922 230.9339599609375 214.6095733642578 C 220.7562255859375 209.9237823486328 212.3269653320313 205.1859741210938 207.1990356445313 201.2689819335938 C 202.2524261474609 197.4912414550781 197.8586273193359 193.7467803955078 193.766357421875 189.8216400146484 C 188.3494262695313 184.6259155273438 183.5888977050781 179.2008361816406 179.6168975830078 173.6971740722656 C 169.1891021728516 159.2481689453125 163.9017639160156 143.943115234375 163.9017639160156 128.2071075439453 C 163.9017639160156 120.3977737426758 163.6791687011719 112.9073104858398 163.4639587402344 105.663444519043 C 163.0152282714844 90.56244659423828 162.5913696289063 76.29897308349609 164.4752960205078 63.92844390869141 C 166.5497589111328 50.30710983276367 171.2281646728516 40.13877487182617 179.1985626220703 31.92797660827637 C 181.6680297851563 29.38404273986816 184.511962890625 26.98664283752441 187.6514282226563 24.80244255065918 C 190.8932342529297 22.54697608947754 194.5682220458984 20.43630981445313 198.5743560791016 18.52917671203613 C 202.6903686523438 16.56964302062988 207.3004913330078 14.75597667694092 212.2766265869141 13.13850975036621 C 217.3668365478516 11.48397636413574 223.0140991210938 9.978109359741211 229.0615692138672 8.66270923614502 C 254.3136291503906 3.170042753219604 288.3203735351563 0.4999762177467346 333.0249633789063 0.4999762177467346 C 356.6339721679688 0.4999762177467346 380.2279663085938 1.472176194190979 403.1516418457031 3.389442920684814 C 425.4915771484375 5.257976055145264 447.465576171875 8.046042442321777 468.4631652832031 11.67610931396484 C 489.0775756835938 15.23997592926025 508.9595642089844 19.65084266662598 527.5568237304688 24.78631019592285 C 545.9739990234375 29.87197685241699 563.291748046875 35.71210861206055 579.0288696289063 42.14450836181641 C 594.7603149414063 48.57450866699219 609.0408325195313 55.64884185791016 621.473876953125 63.17104339599609 C 634.0166015625 70.75950622558594 644.7871704101563 78.86971282958984 653.4862670898438 87.27617645263672 C 662.3328247070313 95.82517242431641 669.1249389648438 104.7671127319336 673.6739501953125 113.8535766601563 C 675.98291015625 118.465576171875 677.7451782226563 123.1849060058594 678.9118041992188 127.8803787231445 C 680.0948486328125 132.6416473388672 680.6946411132813 137.49658203125 680.6946411132813 142.3102416992188 C 680.6946411132813 147.1428375244141 680.2510986328125 151.8689727783203 679.3764038085938 156.3574371337891 C 678.5111083984375 160.7978363037109 677.1991577148438 165.1315155029297 675.4771728515625 169.2381744384766 C 673.7730712890625 173.3019714355469 671.6190185546875 177.2588500976563 669.0747680664063 180.9989166259766 C 666.5564575195313 184.7008361816406 663.5843505859375 188.2953796386719 660.2410888671875 191.6826477050781 C 656.9323120117188 195.0350494384766 653.1663208007813 198.2793731689453 649.047607421875 201.325439453125 C 644.9730224609375 204.3389739990234 640.4380493164063 207.2437133789063 635.5687866210938 209.9589691162109 C 625.9974975585938 215.2961120605469 614.7264404296875 220.1279754638672 602.0685424804688 224.3203735351563 C 589.72216796875 228.4095764160156 575.6969604492188 232.0093078613281 560.3826293945313 235.0195770263672 C 545.480224609375 237.9488372802734 528.9193725585938 240.4058380126953 511.1600952148438 242.3223114013672 C 493.9220275878906 244.1825103759766 475.0433654785156 245.5885772705078 455.0484924316406 246.5014495849609 C 435.6964416503906 247.3849029541016 414.7171630859375 247.8329162597656 392.693359375 247.8329162597656 Z" stroke="none"/>
        <path d="M 333.02490234375 0.999969482421875 C 288.3564453125 0.999969482421875 254.384521484375 3.666305541992188 229.1677856445313 9.1512451171875 C 223.1365356445313 10.46318054199219 217.5055541992188 11.96464538574219 212.43115234375 13.61404418945313 C 207.4755859375 15.22483825683594 202.8857421875 17.03038024902344 198.7892456054688 18.98057556152344 C 194.8076782226563 20.87611389160156 191.1564331054688 22.97291564941406 187.9369506835938 25.21284484863281 C 184.8238525390625 27.37884521484375 182.0045166015625 29.75531005859375 179.557373046875 32.2762451171875 C 171.6629638671875 40.40870666503906 167.0276489257813 50.49031066894531 164.9696044921875 64.00370788574219 C 163.0924682617188 76.32937622070313 163.5156860351563 90.57090759277344 163.9636840820313 105.6486358642578 C 164.1790771484375 112.8961029052734 164.4017333984375 120.3903121948242 164.4017333984375 128.2071075439453 C 164.4017333984375 136.5631103515625 165.9180297851563 144.8784484863281 168.9085083007813 152.9220428466797 C 171.4947509765625 159.8784484863281 175.2340087890625 166.769775390625 180.0222778320313 173.4045715332031 C 183.9766845703125 178.8837738037109 188.71728515625 184.2859191894531 194.1124877929688 189.4607849121094 C 198.1911010742188 193.3728485107422 202.5709838867188 197.1053771972656 207.5025024414063 200.8716430664063 C 212.6021118164063 204.7669067382813 220.997802734375 209.4845123291016 231.14306640625 214.1554412841797 C 243.179443359375 219.6969757080078 257.30908203125 224.9927825927734 272.0045166015625 229.4703826904297 C 289.6542358398438 234.8481750488281 308.12353515625 239.0937042236328 326.8994140625 242.0889739990234 C 348.7110290527344 245.5685729980469 370.8472900390625 247.3329162597656 392.6932983398438 247.3329162597656 C 414.7095031738281 247.3329162597656 435.68115234375 246.8851165771484 455.025634765625 246.0019073486328 C 475.0102233886719 245.0895690917969 493.8785705566406 243.6843109130859 511.1063537597656 241.8251800537109 C 528.851318359375 239.9102478027344 545.3978271484375 237.4554443359375 560.2861328125 234.5289154052734 C 575.5799560546875 231.522705078125 589.584716796875 227.9283752441406 601.911376953125 223.845703125 C 614.5393676757813 219.6631774902344 625.7814331054688 214.8441162109375 635.3251953125 209.5222473144531 C 640.1759643554688 206.8173828125 644.6927490234375 203.92431640625 648.7503051757813 200.9234466552734 C 652.8482666015625 197.8927001953125 656.5945434570313 194.6654357910156 659.88525390625 191.3313751220703 C 663.207275390625 187.9656372070313 666.1599731445313 184.3946380615234 668.661376953125 180.7176513671875 C 671.1868286132813 177.0051727294922 673.3248901367188 173.0778503417969 675.01611328125 169.0447692871094 C 676.7249145507813 164.9695739746094 678.02685546875 160.6687774658203 678.8856201171875 156.2618408203125 C 679.7542114257813 151.8047790527344 680.1946411132813 147.1107788085938 680.1946411132813 142.3102416992188 C 680.1946411132813 137.5371704101563 679.5997314453125 132.7228393554688 678.4265747070313 128.0009765625 C 677.268798828125 123.3411102294922 675.5193481445313 118.6565704345703 673.226806640625 114.0774383544922 C 668.7032470703125 105.0416412353516 661.9446411132813 96.14537048339844 653.1387939453125 87.63577270507813 C 644.466552734375 79.25517272949219 633.7258911132813 71.16796875 621.215087890625 63.59884643554688 C 608.80419921875 56.09010314941406 594.547119140625 49.02757263183594 578.8397827148438 42.60737609863281 C 563.120849609375 36.18244934082031 545.8219604492188 30.34870910644531 527.4237670898438 25.26824951171875 C 508.8421630859375 20.13717651367188 488.9762878417969 15.72990417480469 468.3778991699219 12.16877746582031 C 447.3946838378906 8.541183471679688 425.4353637695313 5.755035400390625 403.1098937988281 3.887710571289063 C 380.2001037597656 1.971572875976563 356.6200866699219 0.999969482421875 333.02490234375 0.999969482421875 M 333.02490234375 -3.0517578125e-05 C 525.313720703125 -3.0517578125e-05 681.1946411132813 63.71444702148438 681.1946411132813 142.3102416992188 C 681.1946411132813 220.9059753417969 566.778076171875 248.3329162597656 392.6932983398438 248.3329162597656 C 298.8621826171875 248.3329162597656 225.8429565429688 216.1393127441406 206.8955078125 201.6663055419922 C 191.06298828125 189.5748443603516 163.4017333984375 164.4400329589844 163.4017333984375 128.2071075439453 C 163.4017333984375 49.6114501953125 140.736083984375 -3.0517578125e-05 333.02490234375 -3.0517578125e-05 Z" stroke="none" fill="#707070"/>
      </g>
    </g>
    <g id="Ellipse_3" data-name="Ellipse 3" transform="translate(169 97.117)" fill="#fff" stroke="#707070" stroke-width="1" opacity="0.08">
      <circle cx="150" cy="150" r="150" stroke="none"/>
      <circle cx="150" cy="150" r="149.5" fill="none"/>
    </g>
    <g id="Ellipse_4" data-name="Ellipse 4" transform="translate(813 313.117)" fill="#fff" stroke="rgba(112,112,112,0)" stroke-width="1" opacity="0.08">
      <circle cx="250" cy="250" r="250" stroke="none"/>
      <circle cx="250" cy="250" r="249.5" fill="none"/>
    </g>
    <g id="Ellipse_5" data-name="Ellipse 5" transform="translate(-81 495.117)" fill="#fff" stroke="#707070" stroke-width="1" opacity="0.08">
      <ellipse cx="275" cy="142" rx="275" ry="142" stroke="none"/>
      <ellipse cx="275" cy="142" rx="274.5" ry="141.5" fill="none"/>
    </g>
  </g>
</svg>
